<svg width="227" height="128" viewBox="0 0 227 128" fill="none" xmlns="http://www.w3.org/2000/svg">
<rect width="227" height="128" fill="white" fill-opacity="0.08"/>
<path d="M122.542 22.0098C117.173 22.1747 110.36 24.4718 103.138 30.7379C88.3803 43.4919 91.2191 53.6427 91.2191 53.6427C91.2191 53.6427 89.6859 44.7633 103.677 32.655C110.959 26.3587 119.979 24.2902 125.537 28.9721C130.52 33.1696 129.777 40.2731 121.344 47.5381C118.086 50.1212 114.601 47.8307 118.05 44.7633C118.435 44.4396 118.772 44.1194 119.069 43.8047C122.276 40.6232 124.746 35.7222 120.925 32.5036C116.326 28.4675 108.504 33.1696 105.054 36.237C94.1299 45.7622 93.8903 55.9231 100.023 61.4122C104.24 64.964 115.751 66.3867 128.591 55.4085C143.349 42.6544 140.51 32.5036 140.51 32.5036C140.51 32.5036 142.043 41.3831 128.052 53.4914C120.77 59.7877 111.75 61.9066 106.192 57.2248C101.209 53.0272 101.952 45.9237 110.384 38.6587C113.834 35.9142 117.308 38.1643 113.858 41.2317C113.474 41.5554 113.137 41.8756 112.84 42.1903C109.632 45.3718 107.162 50.2728 110.983 53.4914C115.583 57.5275 123.213 52.664 126.854 49.758C137.97 40.2328 138.018 30.0719 131.885 24.5828C130.041 23.0289 126.719 21.8815 122.542 22.0098Z" fill="white"/>
<path d="M93.0469 94.0146H89.8037L89.7861 92.6523H92.7305C93.2168 92.6523 93.6416 92.5703 94.0049 92.4062C94.3682 92.2422 94.6494 92.0078 94.8486 91.7031C95.0537 91.3926 95.1562 91.0234 95.1562 90.5957C95.1562 90.127 95.0654 89.7461 94.8838 89.4531C94.708 89.1543 94.4355 88.9375 94.0664 88.8027C93.7031 88.6621 93.2402 88.5918 92.6777 88.5918H90.1816V100H88.4854V87.2031H92.6777C93.334 87.2031 93.9199 87.2705 94.4355 87.4053C94.9512 87.5342 95.3877 87.7393 95.7451 88.0205C96.1084 88.2959 96.3838 88.6475 96.5713 89.0752C96.7588 89.5029 96.8525 90.0156 96.8525 90.6133C96.8525 91.1406 96.7178 91.6182 96.4482 92.0459C96.1787 92.4678 95.8037 92.8135 95.3232 93.083C94.8486 93.3525 94.292 93.5254 93.6533 93.6016L93.0469 94.0146ZM92.9678 100H89.1357L90.0938 98.6201H92.9678C93.5068 98.6201 93.9639 98.5264 94.3389 98.3389C94.7197 98.1514 95.0098 97.8877 95.209 97.5479C95.4082 97.2021 95.5078 96.7949 95.5078 96.3262C95.5078 95.8516 95.4229 95.4414 95.2529 95.0957C95.083 94.75 94.8164 94.4834 94.4531 94.2959C94.0898 94.1084 93.6211 94.0146 93.0469 94.0146H90.6299L90.6475 92.6523H93.9521L94.3125 93.1445C94.9277 93.1973 95.4492 93.373 95.877 93.6719C96.3047 93.9648 96.6299 94.3398 96.8525 94.7969C97.0811 95.2539 97.1953 95.7578 97.1953 96.3086C97.1953 97.1055 97.0195 97.7793 96.668 98.3301C96.3223 98.875 95.833 99.291 95.2002 99.5781C94.5674 99.8594 93.8232 100 92.9678 100ZM105.062 98.374V93.4785C105.062 93.1035 104.985 92.7783 104.833 92.5029C104.687 92.2217 104.464 92.0049 104.165 91.8525C103.866 91.7002 103.497 91.624 103.058 91.624C102.647 91.624 102.287 91.6943 101.977 91.835C101.672 91.9756 101.432 92.1602 101.256 92.3887C101.086 92.6172 101.001 92.8633 101.001 93.127H99.375C99.375 92.7871 99.4629 92.4502 99.6387 92.1162C99.8145 91.7822 100.066 91.4805 100.395 91.2109C100.729 90.9355 101.127 90.7188 101.59 90.5605C102.059 90.3965 102.58 90.3145 103.154 90.3145C103.846 90.3145 104.455 90.4316 104.982 90.666C105.516 90.9004 105.932 91.2549 106.23 91.7295C106.535 92.1982 106.688 92.7871 106.688 93.4961V97.9258C106.688 98.2422 106.714 98.5791 106.767 98.9365C106.825 99.2939 106.91 99.6016 107.021 99.8594V100H105.325C105.243 99.8125 105.179 99.5635 105.132 99.2529C105.085 98.9365 105.062 98.6436 105.062 98.374ZM105.343 94.2344L105.36 95.377H103.717C103.254 95.377 102.841 95.415 102.478 95.4912C102.114 95.5615 101.81 95.6699 101.563 95.8164C101.317 95.9629 101.13 96.1475 101.001 96.3701C100.872 96.5869 100.808 96.8418 100.808 97.1348C100.808 97.4336 100.875 97.7061 101.01 97.9521C101.145 98.1982 101.347 98.3945 101.616 98.541C101.892 98.6816 102.229 98.752 102.627 98.752C103.125 98.752 103.564 98.6465 103.945 98.4355C104.326 98.2246 104.628 97.9668 104.851 97.6621C105.079 97.3574 105.202 97.0615 105.22 96.7744L105.914 97.5566C105.873 97.8027 105.762 98.0752 105.58 98.374C105.398 98.6729 105.155 98.96 104.851 99.2354C104.552 99.5049 104.194 99.7305 103.778 99.9121C103.368 100.088 102.905 100.176 102.39 100.176C101.745 100.176 101.18 100.05 100.693 99.7979C100.213 99.5459 99.8379 99.209 99.5684 98.7871C99.3047 98.3594 99.1729 97.8818 99.1729 97.3545C99.1729 96.8447 99.2725 96.3965 99.4717 96.0098C99.6709 95.6172 99.958 95.292 100.333 95.0342C100.708 94.7705 101.159 94.5713 101.687 94.4365C102.214 94.3018 102.803 94.2344 103.453 94.2344H105.343ZM111.012 90.4902V100H109.377V90.4902H111.012ZM109.254 87.9678C109.254 87.7041 109.333 87.4814 109.491 87.2998C109.655 87.1182 109.896 87.0273 110.212 87.0273C110.522 87.0273 110.76 87.1182 110.924 87.2998C111.094 87.4814 111.179 87.7041 111.179 87.9678C111.179 88.2197 111.094 88.4365 110.924 88.6182C110.76 88.7939 110.522 88.8818 110.212 88.8818C109.896 88.8818 109.655 88.7939 109.491 88.6182C109.333 88.4365 109.254 88.2197 109.254 87.9678ZM114.721 90.4902L116.804 93.9531L118.913 90.4902H120.82L117.709 95.1836L120.917 100H119.036L116.839 96.4316L114.642 100H112.752L115.951 95.1836L112.849 90.4902H114.721ZM128.159 98.374V93.4785C128.159 93.1035 128.083 92.7783 127.931 92.5029C127.784 92.2217 127.562 92.0049 127.263 91.8525C126.964 91.7002 126.595 91.624 126.155 91.624C125.745 91.624 125.385 91.6943 125.074 91.835C124.77 91.9756 124.529 92.1602 124.354 92.3887C124.184 92.6172 124.099 92.8633 124.099 93.127H122.473C122.473 92.7871 122.561 92.4502 122.736 92.1162C122.912 91.7822 123.164 91.4805 123.492 91.2109C123.826 90.9355 124.225 90.7188 124.688 90.5605C125.156 90.3965 125.678 90.3145 126.252 90.3145C126.943 90.3145 127.553 90.4316 128.08 90.666C128.613 90.9004 129.029 91.2549 129.328 91.7295C129.633 92.1982 129.785 92.7871 129.785 93.4961V97.9258C129.785 98.2422 129.812 98.5791 129.864 98.9365C129.923 99.2939 130.008 99.6016 130.119 99.8594V100H128.423C128.341 99.8125 128.276 99.5635 128.229 99.2529C128.183 98.9365 128.159 98.6436 128.159 98.374ZM128.44 94.2344L128.458 95.377H126.814C126.352 95.377 125.938 95.415 125.575 95.4912C125.212 95.5615 124.907 95.6699 124.661 95.8164C124.415 95.9629 124.228 96.1475 124.099 96.3701C123.97 96.5869 123.905 96.8418 123.905 97.1348C123.905 97.4336 123.973 97.7061 124.107 97.9521C124.242 98.1982 124.444 98.3945 124.714 98.541C124.989 98.6816 125.326 98.752 125.725 98.752C126.223 98.752 126.662 98.6465 127.043 98.4355C127.424 98.2246 127.726 97.9668 127.948 97.6621C128.177 97.3574 128.3 97.0615 128.317 96.7744L129.012 97.5566C128.971 97.8027 128.859 98.0752 128.678 98.374C128.496 98.6729 128.253 98.96 127.948 99.2354C127.649 99.5049 127.292 99.7305 126.876 99.9121C126.466 100.088 126.003 100.176 125.487 100.176C124.843 100.176 124.277 100.05 123.791 99.7979C123.311 99.5459 122.936 99.209 122.666 98.7871C122.402 98.3594 122.271 97.8818 122.271 97.3545C122.271 96.8447 122.37 96.3965 122.569 96.0098C122.769 95.6172 123.056 95.292 123.431 95.0342C123.806 94.7705 124.257 94.5713 124.784 94.4365C125.312 94.3018 125.9 94.2344 126.551 94.2344H128.44ZM133.969 91.9844V100H132.343V90.4902H133.925L133.969 91.9844ZM136.939 90.4375L136.931 91.9492C136.796 91.9199 136.667 91.9023 136.544 91.8965C136.427 91.8848 136.292 91.8789 136.14 91.8789C135.765 91.8789 135.434 91.9375 135.146 92.0547C134.859 92.1719 134.616 92.3359 134.417 92.5469C134.218 92.7578 134.06 93.0098 133.942 93.3027C133.831 93.5898 133.758 93.9062 133.723 94.252L133.266 94.5156C133.266 93.9414 133.321 93.4023 133.433 92.8984C133.55 92.3945 133.729 91.9492 133.969 91.5625C134.209 91.1699 134.514 90.8652 134.883 90.6484C135.258 90.4258 135.703 90.3145 136.219 90.3145C136.336 90.3145 136.471 90.3291 136.623 90.3584C136.775 90.3818 136.881 90.4082 136.939 90.4375Z" fill="white"/>
<path d="M87 101.758H137.203V102.637H87V101.758Z" fill="white"/>
<a href="https://drive.google.com/file/d/1AL-Y_VQQiTKPXqljoW0udIPwVT0dX65K/view?usp=sharing">
<rect fill="black" fill-opacity="0" y="3.95312" width="50.2031" height="21.0938"/>
</a>
</svg>
